# AST/ASF file generated using VICON BodyLanguage
# -----------------------------------------------
:version 1.10
:name VICON
:units
  mass 1.0
  length 0.45
  angle deg
:documentation
   .ast/.asf automatically generated from VICON data using
   VICON BodyBuilder and BodyLanguage model FoxedUp or BRILLIANT.MOD
:root
   order TX TY TZ RX RY RZ
   axis XYZ
   position 0 0 0  
   orientation 0 0 0 
:bonedata
  begin
     id 1 
     name lhipjoint
     direction 0.734343 -0.627749 0.258209 
     length 2.5437 
     axis 0 0 0  XYZ
  end
  begin
     id 2 
     name lfemur
     direction 0.34202 -0.939693 0  
     length 6.7391  
     axis 0 0 20  XYZ
    dof rx ry rz
    limits (-160.0 20.0)
           (-70.0 70.0)
           (-60.0 70.0)
  end
  begin
     id 3 
     name ltibia
     direction 0.34202 -0.939693 0   
     length 7.21536   
     axis 0 0 20   XYZ
    dof rx
    limits (-10.0 170.0)
  end
  begin
     id 4 
     name lfoot
     direction 0.0489572 -0.134509 0.989702   
     length 1.61313   
     axis -90 7.62852e-016 20   XYZ
    dof rx rz
    limits (-45.0 90.0)
           (-70.0 20.0)
  end
  begin
     id 5 
     name ltoes
     direction 1.53451e-011 -4.21692e-011 1   
     length 0.823104   
     axis -90 7.62852e-016 20   XYZ
    dof rx
    limits (-90.0 20.0)
  end
  begin
     id 6 
     name rhipjoint
     direction -0.746398 -0.615468 0.253157   
     length 2.59446  
     axis 0 0 0  XYZ 
  end
  begin
     id 7 
     name rfemur
     direction -0.34202 -0.939693 0   
     length 6.7075   
     axis 0 0 -20   XYZ
    dof rx ry rz
    limits (-160.0 20.0)
           (-70.0 70.0)
           (-70.0 60.0)
  end
  begin
     id 8 
     name rtibia
     direction -0.34202 -0.939693 0   
     length 7.27262   
     axis 0 0 -20   XYZ
    dof rx
    limits (-10.0 170.0)
 end
 begin
     id 9 
     name rfoot
     direction -0.0455203 -0.125066 0.991104   
     length 1.91095  
     axis -90 -7.62852e-016 -20   XYZ
    dof rx rz
    limits (-45.0 90.0)
           (-20.0 70.0)
  end
  begin
     id 10 
     name rtoes
     direction -1.53601e-011 -4.21913e-011 1   
     length 0.969037   
     axis -90 -7.62852e-016 -20   XYZ
    dof rx
    limits (-90.0 20.0)
  end
  begin
     id 11 
     name lowerback
     direction 0.0181546 0.999122 -0.0377542   
     length 1.99916   
     axis 0 0 0   XYZ
    dof rx ry rz
    limits (-20.0 45.0)
           (-30.0 30.0)
           (-30.0 30.0)
  end
  begin
     id 12 
     name upperback
     direction 0.0203486 0.99589 0.0882534   
     length 1.951   
     axis 0 0 0   XYZ
    dof rx ry rz
    limits (-20.0 45.0)
           (-30.0 30.0)
           (-30.0 30.0)
  end
  begin
     id 13 
     name thorax
     direction 0.0131685 0.994241 0.106355   
     length 1.97461   
     axis 0 0 0   XYZ
    dof rx ry rz
    limits (-20.0 45.0)
           (-30.0 30.0)
           (-30.0 30.0)
  end
  begin
     id 14 
     name lowerneck
     direction -0.0281395 0.999325 0.023617   
     length 1.7959   
     axis 0 0 0   XYZ
    dof rx ry rz
    limits (-20.0 45.0)
           (-30.0 30.0)
           (-30.0 30.0)
  end
  begin
     id 15 
     name upperneck
     direction 0.0288721 0.991984 -0.123019   
     length 1.79917   
     axis 0 0 0   XYZ
    dof rx ry rz
    limits (-20.0 45.0)
           (-30.0 30.0)
           (-30.0 30.0)
  end
  begin
     id 16
     name head
     direction 0.0133797 0.998944 -0.0439492  
     length 1.80902  
     axis 0 0 0   XYZ
    dof rx ry rz
    limits (-20.0 45.0)
           (-30.0 30.0)
           (-30.0 30.0)
  end
  begin
     id 17 
     name lclavicle
     direction 0.919195 0.377107 0.113449  
     length 3.17815  
     axis 0 0 0   XYZ
    dof ry rz
    limits (-20.0 10.0)
           (0.0 20.0)
  end
  begin
     id 18 
     name lhumerus
     direction 1 -4.48959e-011 2.13129e-027   
     length 4.84137   
     axis 180 -30 -90   XYZ
    dof rx ry rz
    limits (-60.0 90.0)
           (-90.0 90.0)
           (-90.0 90.0)
  end
  begin
     id 19
     name lradius
     direction 1 -4.48957e-011 -6.30627e-028   
     length 3.2452   
     axis 180 -30 -90   XYZ
    dof rx
    limits (-10.0 170.0)
  end
  begin
     id 20
     name lwrist
     direction 1 -4.4901e-011 9.13299e-027   
     length 1.6226   
     axis -6.84618e-015 90 90   XYZ
    dof ry
    limits (-180.0 0.0)
 end
  begin
     id 21 
     name lhand
     direction 1 -4.48816e-011 1.82293e-026   
     length 0.521221   
     axis -1.16502e-014 90 90   XYZ
    dof rx rz
    limits (-90.0 90.0)
           (-45.0 45.0)
  end
  begin
     id 22 
     name lfingers
     direction 1 -4.49108e-011 3.65687e-026   
     length 0.420221   
     axis -2.33008e-014 90 90   XYZ
    dof rx
    limits (0.0 90.0)
  end
  begin
     id 23
     name lthumb
     direction 0.707107 -6.34943e-011 0.707107   
     length 0.603356   
     axis -90 45 5.69224e-014   XYZ
    dof rx rz
    limits (-45.0 45.0)
           (-45.0 45.0)
  end
  begin
     id 24 
     name rclavicle
     direction -0.90847 0.38596 0.160368   
     length 3.12973  
     axis 0 0 0   XYZ 
    dof ry rz
    limits (-10.0 20.0)
           (-20.0 0.0)
  end
  begin
     id 25 
     name rhumerus
     direction -1 -4.48974e-011 4.47268e-028  
     length 4.72284   
     axis 180 30 90   XYZ
    dof rx ry rz
    limits (-90.0 60.0)
           (-90.0 90.0)
           (-90.0 90.0)
  end
  begin
     id 26 
     name rradius
     direction -1 -4.48969e-011 3.43203e-027   
     length 3.23459   
     axis 180 30 90   XYZ
    dof rx
    limits (-10.0 170.0)
  end
  begin
     id 27 
     name rwrist
     direction -1 -4.48969e-011 9.12911e-027   
     length 1.6173   
     axis -6.84618e-015 -90 -90   XYZ
    dof ry
    limits (-180.0 0.0)
  end
  begin
     id 28
     name rhand
     direction -1 -4.49194e-011 1.83006e-026   
     length 0.307416   
     axis -1.16502e-014 -90 -90   XYZ
    dof rx rz
    limits (-90.0 90.0)
           (-45.0 45.0)
  end
  begin
     id 29
     name rfingers
     direction -1 -4.48423e-011 3.63103e-026   
     length 0.247847   
     axis -2.33008e-014 -90 -90   XYZ
    dof rx
    limits (0.0 90.0)
  end
  begin
     id 30
     name rthumb
     direction -0.707107 -6.34802e-011 0.707107   
     length 0.35586   
     axis -90 -45 -5.69224e-014   XYZ
    dof rx rz
    limits (-45.0 45.0)
           (-45.0 45.0)
  end
:hierarchy
  begin
    root lhipjoint rhipjoint lowerback
    lhipjoint lfemur
    lfemur ltibia
    ltibia lfoot
    lfoot ltoes
    rhipjoint rfemur
    rfemur rtibia
    rtibia rfoot
    rfoot rtoes
    lowerback upperback
    upperback thorax
    thorax lowerneck lclavicle rclavicle
    lowerneck upperneck
    upperneck head
    lclavicle lhumerus
    lhumerus lradius
    lradius lwrist
    lwrist lhand lthumb
    lhand lfingers
    rclavicle rhumerus
    rhumerus rradius
    rradius rwrist
    rwrist rhand rthumb
    rhand rfingers
  end

#!OML:ASF H:\Terrain\Patient Classification 1\Animal1\Tuesday\Animal1.ASF
:FULLY-SPECIFIED
:DEGREES
1
root 12.3561 16.059 -21.9328 7.28729 -8.49196 1.61836
lowerback -5.05733 -0.160346 -1.09806
upperback -6.26481 -0.192973 0.488077
thorax -3.62418 -0.0470465 1.11521
lowerneck -3.94016 -1.43199 -4.63989
upperneck 16.8477 -2.73374 7.41481
head 5.87737 -1.11625 2.94768
rclavicle -4.17448e-015 -1.59028e-015
rhumerus -26.6802 60.9422 -15.9939
rradius 132.276
rwrist -23.6717
rhand -11.3485 41.1274
rfingers 7.12502
rthumb 14.6848 11.6675
lclavicle -4.17448e-015 -1.59028e-015
lhumerus -38.221 -64.0683 38.4657
lradius 130.628
lwrist 7.8706
lhand 13.4246 18.769
lfingers 7.12502
lthumb 38.3667 44.4675
rfemur -25.0882 12.4226 14.4739
rtibia 35.3255
rfoot -9.90479 -28.7262
rtoes -0.566004
lfemur -12.8108 -21.6486 -27.457
ltibia 22.88
lfoot -14.9452 22.1864
ltoes 13.8413
2
root 12.3702 16.0553 -21.9295 7.09551 -8.5727 1.84044
lowerback -4.95436 -0.165967 -1.29797
upperback -6.21166 -0.198532 0.419606
thorax -3.62607 -0.0434681 1.15659
lowerneck -3.8387 -1.38478 -4.62217
upperneck 16.7973 -2.69005 7.53095
head 5.84183 -1.08861 2.98459
rclavicle 6.26172e-015 1.59028e-015
rhumerus -27.2337 59.1092 -17.1708
rradius 132.512
rwrist -25.6192
rhand -10.6497 40.9372
rfingers 7.12502
rthumb 15.3579 11.5275
lclavicle 6.26172e-015 1.59028e-015
lhumerus -38.3375 -62.5045 38.3302
lradius 130.94
lwrist 9.1519
lhand 15.2484 17.8619
lfingers 7.12502
lthumb 40.0854 43.0621
rfemur -25.2644 11.9468 14.2448
rtibia 35.9885
rfoot -9.8411 -28.0813
rtoes -0.258912
lfemur -12.5648 -21.5209 -27.8251
ltibia 22.7481
lfoot -14.9078 22.0779
ltoes 14.0297
3
root 12.3831 16.057 -21.9261 7.02299 -8.62682 1.89623
lowerback -4.94905 -0.127425 -1.3187
upperback -6.13844 -0.148241 0.334454
thorax -3.55392 -0.0202875 1.08104
lowerneck -4.05433 -1.40569 -4.51243
upperneck 16.9782 -2.75769 7.6734
head 5.94054 -1.09839 3.00828
rclavicle -3.67752e-014 1.59028e-015
rhumerus -28.4156 56.9416 -19.0068
rradius 132.828
rwrist -28.2323
rhand -9.76233 41.1016
rfingers 7.12502
rthumb 16.2125 11.7595
lclavicle -3.67752e-014 1.59028e-015
lhumerus -38.0145 -60.822 37.9747
lradius 131.222
lwrist 10.4874
lhand 16.2874 17.6439
lfingers 7.12502
lthumb 41.0621 42.5405
rfemur -25.5085 11.4537 14.1924
rtibia 36.53
rfoot -10.0229 -27.2833
rtoes 1.5482
lfemur -12.6105 -21.2384 -27.9805
ltibia 22.9737
lfoot -14.9803 21.8602
ltoes 14.1748
4
root 12.3935 16.0517 -21.9256 7.06546 -8.55638 1.82282
lowerback -4.96967 -0.0762331 -1.19593
upperback -6.09398 -0.083931 0.250779
thorax -3.49742 0.00457661 0.927003
lowerneck -4.37467 -1.51476 -4.36595
upperneck 17.1987 -2.9478 7.79345
head 6.07792 -1.16355 3.01031
rclavicle 1.39646e-014 9.93923e-016
rhumerus -30.0318 54.3825 -21.1029
rradius 133.336
rwrist -31.3115
rhand -9.24297 41.1463
rfingers 7.12502
rthumb 16.7125 11.8457
lclavicle 1.39646e-014 9.93923e-016
lhumerus -37.5052 -58.9813 37.6146
lradius 131.346
lwrist 12.421
lhand 16.289 17.652
lfingers 7.12502
lthumb 41.0636 42.5481
rfemur -25.8356 10.9596 14.2777
rtibia 37.0379
rfoot -9.88146 -26.7175
rtoes 1.09527
lfemur -12.784 -20.9913 -27.9312
ltibia 23.1904
lfoot -15.0512 21.5624
ltoes 14.2355
5
root 12.405 16.0384 -21.9247 7.00186 -8.4279 1.70382
lowerback -4.85239 -0.0771303 -1.00781
upperback -6.06331 -0.0906858 0.227258
thorax -3.5305 -0.00660184 0.797377
lowerneck -4.43055 -1.55792 -4.32321
upperneck 17.2338 -3.03073 7.90047
head 6.10492 -1.1918 3.03197
rclavicle -3.77691e-015 -8.54774e-015
rhumerus -30.9759 51.6669 -22.7708
rradius 133.733
rwrist -34.5954
rhand -9.75425 40.5205
rfingers 7.12502
rthumb 16.2203 11.1791
lclavicle -3.77691e-015 -8.54774e-015
lhumerus -37.3257 -56.8121 37.5696
lradius 131.553
lwrist 14.7418
lhand 16.8695 17.5777
lfingers 7.12502
lthumb 41.6084 42.2975
rfemur -26.0105 10.6002 14.4084
rtibia 37.5304
rfoot -9.33367 -26.6071
rtoes -1.91143
lfemur -12.8387 -20.8898 -27.8826
ltibia 23.4545
lfoot -15.2666 21.3657
ltoes 14.3381
6
root 12.4167 16.0314 -21.9233 6.84408 -8.34617 1.69242
lowerback -4.62365 -0.114795 -0.978051
upperback -6.05035 -0.143144 0.242507
thorax -3.64388 -0.0329871 0.796013
lowerneck -4.36009 -1.56047 -4.44484
upperneck 17.2671 -3.05371 8.06508
head 6.10791 -1.20019 3.10475
rclavicle 9.79014e-015 -2.18663e-015
rhumerus -31.2971 48.8568 -24.1643
rradius 133.93
rwrist -37.905
rhand -10.4135 39.4658
rfingers 7.12502
rthumb 15.5855 10.0737
lclavicle 9.79014e-015 -2.18663e-015
lhumerus -37.3348 -54.386 37.8026
lradius 131.89
lwrist 17.2774
lhand 18.2021 18.1561
lfingers 7.12502
lthumb 42.8567 42.4525
rfemur -26.1325 10.2016 14.4286
rtibia 38.09
rfoot -9.36866 -26.207
rtoes -2.09459
lfemur -12.7875 -20.8667 -27.9983
ltibia 23.7145
lfoot -15.1873 21.4122
ltoes 13.6344
